nColumns=19
nRows=89
DataType=double
version=3
OpenSimVersion=4.1
endheader
time	ground_force_calcn_r_vx	ground_force_calcn_r_vy	ground_force_calcn_r_vz	ground_force_calcn_r_px	ground_force_calcn_r_py	ground_force_calcn_r_pz	ground_force_calcn_r_mx	ground_force_calcn_r_my	ground_force_calcn_r_mz	ground_force_calcn_l_vx	ground_force_calcn_l_vy	ground_force_calcn_l_vz	ground_force_calcn_l_px	ground_force_calcn_l_py	ground_force_calcn_l_pz	ground_force_calcn_l_mx	ground_force_calcn_l_my	ground_force_calcn_l_mz
4.11	0	0	0	0	0	0	0	0	0	0	0	0	0	0	0	0	0	0
4.12	0	0	0	0	0	0	0	0	0	0	0	0	0	0	0	0	0	0
4.13	0	0	0	0	0	0	0	0	0	0	0	0	0	0	0	0	0	0
4.14	0	0	0	0	0	0	0	0	0	0	0	0	0	0	0	0	0	0
4.15	0	0	0	0	0	0	0	0	0	0	0	0	0	0	0	0	0	0
4.16	0	0	0	0	0	0	0	0	0	0.754127	13.5625	-0.408609	-0.00166441	0	-0.00098195	-5.41169e-21	-9.73261e-20	2.93221e-21
4.17	0	0	0	0	0	0	0	0	0	0.559328	36.0504	-5.08654	1.07649	0	-0.320244	0.020008	1.28958	-0.181953
4.18	0	0	0	0	0	0	0	0	0	3.78829	127.778	-13.6465	0.989826	0	-0.349559	0.0258802	0.872934	-0.0932282
4.19	0	0	0	0	0	0	0	0	0	3.22685	386.178	-24.593	1.01334	0	-0.332033	0.00645684	0.772732	-0.04921
4.2	0	0	0	0	0	0	0	0	0	-36.2313	819.506	-28.1109	1.01296	0	-0.326651	0.00647496	-0.146455	0.00502375
4.21	0	0	0	0	0	0	0	0	0	-123.751	1204.46	-17.1347	1.00818	0	-0.323393	0.224479	-2.18483	0.0310815
4.22	0	0	0	0	0	0	0	0	0	-195.642	1314.99	-27.5602	0.998576	0	-0.3215	0.639943	-4.30131	0.0901489
4.23	0	0	0	0	0	0	0	0	0	-216.583	1245.75	-85.6124	0.980602	0	-0.321065	0.892539	-5.13374	0.352809
4.24	0	0	0	0	0	0	0	0	0	-214.466	1200.03	-104.018	0.950883	0	-0.321904	0.803029	-4.49329	0.389475
4.25	0	0	0	0	0	0	0	0	0	-198.802	1238.05	-28.3265	0.911587	0	-0.323104	0.56822	-3.53861	0.0809634
4.26	0	0	0	0	0	0	0	0	0	-160.088	1319.67	28.108	0.871908	0	-0.324121	0.407021	-3.35523	-0.071464
4.27	0	0	0	0	0	0	0	0	0	-105.95	1388.69	1.34328	0.838733	0	-0.325157	0.298354	-3.91057	-0.00378268
4.28	0	0	0	0	0	0	0	0	0	-62.3482	1416.56	-26.5042	0.811349	0	-0.326288	0.187108	-4.25112	0.0795395
4.29	0	0	0	0	0	0	0	0	0	-31.7413	1406.49	-11.1048	0.786049	0	-0.327432	0.0861416	-3.81703	0.030137
4.3	0	0	0	0	0	0	0	0	0	-1.465	1366.57	3.10123	0.759785	0	-0.328531	0.00319185	-2.9774	-0.00675677
4.31	0	0	0	0	0	0	0	0	0	31.492	1301.23	0.883981	0.731358	0	-0.329285	-0.0623649	-2.57688	-0.00175058
4.32	0	0	0	0	0	0	0	0	0	66.6058	1217.57	-3.76975	0.700943	0	-0.329208	-0.17055	-3.11771	0.00965281
4.33	0	0	0	0	0	0	0	0	0	105.645	1112.86	-13.7025	0.668884	0	-0.328117	-0.398056	-4.1931	0.0516295
4.34	0	0	0	0	0	0	0	0	0	139.432	973.257	-26.5584	0.634558	0	-0.326307	-0.653101	-4.55876	0.1244
4.35	0	0	0	0	0	0	0	0	0	155.785	786.402	-33.7322	0.59579	0	-0.324205	-0.600808	-3.03287	0.130093
4.36	0	0	0	0	0	0	0	0	0	150.012	561.108	-38.0536	0.548757	0	-0.321837	0.0661364	0.247379	-0.0167769
4.37	0	0	0	0	0	0	0	0	0	125.749	345.103	-41.7357	0.487895	0	-0.317966	1.23186	3.38068	-0.408849
4.38	0	0	0	0	0	0	0	0	0	92.2638	186.096	-32.4672	0.398011	0	-0.309704	2.10911	4.25405	-0.742184
4.39	0	0	0	0	0	0	0	0	0	55.8646	91.7347	-10.1819	0.176073	0	-0.289425	1.89187	3.10662	-0.344813
4.4	0	0	0	0	0	0	0	0	0	21.7029	43.9773	0.269946	2.61546	0	-0.585479	0.856878	1.73632	0.0106581
4.41	0	0	0	0	0	0	0	0	0	1.68513	18.9011	-3.33603	-0.00166462	0	-0.000980441	-7.15152e-20	-8.02143e-19	1.41577e-19
4.42	0	0	0	0	0	0	0	0	0	0	0	0	0	0	0	0	0	0
4.43	0	0	0	0	0	0	0	0	0	0	0	0	0	0	0	0	0	0
4.44	0	0	0	0	0	0	0	0	0	0	0	0	0	0	0	0	0	0
4.45	0	0	0	0	0	0	0	0	0	0	0	0	0	0	0	0	0	0
4.46	0	0	0	0	0	0	0	0	0	0	0	0	0	0	0	0	0	0
4.47	-1.8903	11.6823	0.112851	-0.00166441	0	-0.000980466	-2.81356e-19	1.73882e-18	1.6797e-20	0	0	0	0	0	0	0	0	0
4.48	-0.0217365	28.4433	-2.68939	-0.00166442	0	-0.00098041	-1.03993e-23	1.3608e-20	-1.28667e-21	0	0	0	0	0	0	0	0	0
4.49	8.69489	112.432	-9.97499	0.993374	0	-0.292252	0.0986784	1.27599	-0.113206	0	0	0	0	0	0	0	0	0
4.5	21.0971	369.101	-20.3484	1.01103	0	-0.2965	-0.0326724	-0.571615	0.0315129	0	0	0	0	0	0	0	0	0
4.51	3.23396	836.206	-9.34811	1.01142	0	-0.297107	0.00701464	1.81378	-0.0202766	0	0	0	0	0	0	0	0	0
4.52	-73.0167	1267.32	63.5472	1.0095	0	-0.298322	-0.358769	6.227	0.312241	0	0	0	0	0	0	0	0	0
4.53	-159.974	1370.54	144.948	1.00474	0	-0.300068	-0.96671	8.2821	0.875914	0	0	0	0	0	0	0	0	0
4.54	-212.07	1269.85	102.006	0.993478	0	-0.301649	-1.10263	6.60242	0.53037	0	0	0	0	0	0	0	0	0
4.55	-224.986	1220.43	-24.3413	0.969019	0	-0.301662	-0.626327	3.3975	-0.0677624	0	0	0	0	0	0	0	0	0
4.56	-203.98	1285.14	-67.5036	0.930673	0	-0.299634	-0.251221	1.58277	-0.0831372	0	0	0	0	0	0	0	0	0
4.57	-160.706	1399.5	-22.9017	0.889983	0	-0.296957	-0.198324	1.7271	-0.0282624	0	0	0	0	0	0	0	0	0
4.58	-105.221	1483.25	-1.62179	0.855718	0	-0.295296	-0.148421	2.09221	-0.00228764	0	0	0	0	0	0	0	0	0
4.59	-61.7893	1502.96	-20.352	0.827089	0	-0.294886	-0.0481105	1.17024	-0.0158465	0	0	0	0	0	0	0	0	0
4.6	-30.7309	1474.52	-24.2593	0.799578	0	-0.295001	0.0146784	-0.704296	0.0115874	0	0	0	0	0	0	0	0	0
4.61	-0.479302	1421.88	-10.9969	0.76922	0	-0.295065	0.000703634	-2.08737	0.0161439	0	0	0	0	0	0	0	0	0
4.62	34.7521	1351.29	-1.58542	0.733715	0	-0.294997	-0.053774	-2.09093	0.00245321	0	0	0	0	0	0	0	0	0
4.63	77.3939	1256.63	7.87664	0.692811	0	-0.294952	-0.077536	-1.25894	-0.00789111	0	0	0	0	0	0	0	0	0
4.64	128.102	1124.4	20.9342	0.64785	0	-0.295059	-0.101449	-0.890461	-0.0165788	0	0	0	0	0	0	0	0	0
4.65	181.461	941.956	36.6172	0.600882	0	-0.295287	-0.264623	-1.37364	-0.0533983	0	0	0	0	0	0	0	0	0
4.66	213.716	722.178	52.5649	0.553861	0	-0.295196	-0.445659	-1.50595	-0.109613	0	0	0	0	0	0	0	0	0
4.67	192.616	499.193	57.6451	0.506442	0	-0.293537	-0.175914	-0.455907	-0.0526466	0	0	0	0	0	0	0	0	0
4.68	133.756	302.331	39.4999	0.449929	0	-0.289962	0.0450084	0.101733	0.0132915	0	0	0	0	0	0	0	0	0
4.69	80.3709	155.067	7.6285	0.343377	0	-0.290601	-1.28777	-2.48462	-0.122231	0	0	0	0	0	0	0	0	0
4.7	43.0962	65.26	-9.57589	-0.138186	0	-0.300201	-4.28248	-6.4849	0.951559	0	0	0	0	0	0	0	0	0
4.71	17.119	23.9781	-5.07446	-0.00166459	0	-0.000979371	5.71307e-21	8.00217e-21	-1.69349e-21	0	0	0	0	0	0	0	0	0
4.72	1.728	11.4253	1.56297	-0.0016646	0	-0.000979337	-6.21612e-20	-4.11002e-19	-5.62246e-20	0	0	0	0	0	0	0	0	0
4.73	0	0	0	0	0	0	0	0	0	0	0	0	0	0	0	0	0	0
4.74	0	0	0	0	0	0	0	0	0	0	0	0	0	0	0	0	0	0
4.75	0	0	0	0	0	0	0	0	0	0	0	0	0	0	0	0	0	0
4.76	0	0	0	0	0	0	0	0	0	-3.61503	12.4627	-2.21598	-0.00166482	0	-0.000979054	4.77586e-19	-1.64646e-18	2.92756e-19
4.77	0	0	0	0	0	0	0	0	0	-6.89063	32.4361	-5.17066	1.13584	0	-0.308504	-0.517448	2.43577	-0.388289
4.78	0	0	0	0	0	0	0	0	0	-12.43	126.941	-9.73045	1.04175	0	-0.339538	-0.0230916	0.235821	-0.0180765
4.79	0	0	0	0	0	0	0	0	0	-26.0849	395.681	-16.6246	1.05748	0	-0.319466	0.117295	-1.77925	0.0747555
4.8	0	0	0	0	0	0	0	0	0	-56.3326	837.407	-3.206	1.05772	0	-0.31428	0.204749	-3.04368	0.0116527
4.81	0	0	0	0	0	0	0	0	0	-112.684	1176.18	32.1746	1.05526	0	-0.311947	0.44863	-4.68276	-0.128097
4.82	0	0	0	0	0	0	0	0	0	-173.499	1192.26	7.9177	1.04877	0	-0.311537	1.00888	-6.9329	-0.0460407
4.83	0	0	0	0	0	0	0	0	0	-215.365	1080.4	-92.6594	1.03189	0	-0.31295	1.63344	-8.1943	0.702776
4.84	0	0	0	0	0	0	0	0	0	-232.464	1070.13	-104.108	0.998311	0	-0.315481	1.6293	-7.50038	0.729675
4.85	0	0	0	0	0	0	0	0	0	-213.519	1176.55	18.5229	0.951347	0	-0.317118	1.0244	-5.64471	-0.0888675
4.86	0	0	0	0	0	0	0	0	0	-156.843	1306.47	83.2877	0.904423	0	-0.317487	0.460587	-3.83661	-0.244584
4.87	0	0	0	0	0	0	0	0	0	-91.2996	1384.3	18.2913	0.865499	0	-0.317744	0.170426	-2.58403	-0.0341438
4.88	0	0	0	0	0	0	0	0	0	-44.2376	1408.83	-32.0046	0.83244	0	-0.318047	0.0389777	-1.24132	0.0281992
4.89	0	0	0	0	0	0	0	0	0	-8.66265	1408.23	0.153487	0.80048	0	-0.318046	-0.00273049	0.443877	4.83795e-05
4.9	0	0	0	0	0	0	0	0	0	29.7477	1386.32	25.2374	0.766018	0	-0.317761	0.0404026	1.88287	0.0342768
4.91	0	0	0	0	0	0	0	0	0	70.2157	1335.32	3.80304	0.727431	0	-0.317334	0.121932	2.31884	0.00660411
4.92	0	0	0	0	0	0	0	0	0	112.035	1256.96	-17.1784	0.684561	0	-0.316677	0.144405	1.62013	-0.0221417
4.93	0	0	0	0	0	0	0	0	0	160.769	1145.28	-22.4465	0.638406	0	-0.315703	0.0699127	0.498041	-0.00976116
4.94	0	0	0	0	0	0	0	0	0	216.661	988.367	-28.8667	0.590825	0	-0.314558	0.00985787	0.0449697	-0.00131341
4.95	0	0	0	0	0	0	0	0	0	251.162	794.741	-37.9241	0.544076	0	-0.313329	0.252256	0.798205	-0.0380895
4.96	0	0	0	0	0	0	0	0	0	233.504	587.739	-42.4203	0.499152	0	-0.311995	0.862131	2.17002	-0.156622
4.97	0	0	0	0	0	0	0	0	0	177.934	390.136	-39.5423	0.452141	0	-0.310825	1.39909	3.06763	-0.31092
4.98	0	0	0	0	0	0	0	0	0	117.995	228.58	-26.7907	0.385144	0	-0.310224	1.5103	2.92575	-0.342912
4.99	0	0	0	0	0	0	0	0	0	68.7176	114.938	-6.81622	0.220384	0	-0.309384	1.33425	2.23169	-0.132346
